<svg width="720" height="402" viewBox="0 0 720 402" xmlns="http://www.w3.org/2000/svg">
  <rect width="720" height="402" rx="10" fill="#0f0f12"/>
  <rect width="720" height="38" rx="10" fill="#17171b"/>
  <rect y="28" width="720" height="10" fill="#17171b"/>
  <rect y="38" width="720" height="1" fill="#272730"/>
  <circle cx="18" cy="19" r="5" fill="#ff5f57"/>
  <circle cx="36" cy="19" r="5" fill="#ffbd2e"/>
  <circle cx="54" cy="19" r="5" fill="#28ca41"/>
  <text x="360" y="24" font-family="monospace" font-size="11" fill="#56566a" text-anchor="middle">sevineleven@dev — ~</text>
  <text x="22" y="54" font-family="monospace" font-size="12" fill="#3dd68c">$</text>
  <text x="36" y="54" font-family="monospace" font-size="12" fill="#e0e0e6">whoami</text>
  <text x="38" y="80" font-family="monospace" font-size="12" fill="#56566a">name</text><text x="140" y="80" font-family="monospace" font-size="12" fill="#e0e0e6">parksevin</text><text x="38" y="102" font-family="monospace" font-size="12" fill="#56566a">role</text><text x="140" y="102" font-family="monospace" font-size="12" fill="#e0e0e6">backend developer</text><text x="38" y="124" font-family="monospace" font-size="12" fill="#56566a">blog</text><text x="140" y="124" font-family="monospace" font-size="12" fill="#5aacf0">blog.sevin.dev</text><text x="38" y="146" font-family="monospace" font-size="12" fill="#56566a">web</text><text x="140" y="146" font-family="monospace" font-size="12" fill="#3dd68c">sevin.dev</text>
  <rect x="22" y="180" width="676" height="1" fill="#272730"/>
  <text x="22" y="208" font-family="monospace" font-size="12" fill="#3dd68c">$</text>
  <text x="36" y="208" font-family="monospace" font-size="12" fill="#e0e0e6">cat recent-posts.md</text>
  <text x="22" y="250" font-family="monospace" font-size="12" fill="#3dd68c">▸</text><text x="38" y="250" font-family="monospace" font-size="12" fill="#3dd68c">[백엔드]</text><text x="220" y="250" font-family="monospace" font-size="12" fill="#e0e0e6">비밀번호 없는 admin 페이지, 슬랙으로 내 IP…</text><text x="702" y="250" font-family="monospace" font-size="11" fill="#56566a" text-anchor="end">06.19</text><text x="22" y="282" font-family="monospace" font-size="12" fill="#3dd68c">▸</text><text x="38" y="282" font-family="monospace" font-size="12" fill="#b388ff">[일상]</text><text x="220" y="282" font-family="monospace" font-size="12" fill="#e0e0e6">이 글, AI가 썼을까? — raw AI와 'AI …</text><text x="702" y="282" font-family="monospace" font-size="11" fill="#56566a" text-anchor="end">06.19</text><text x="22" y="314" font-family="monospace" font-size="12" fill="#3dd68c">▸</text><text x="38" y="314" font-family="monospace" font-size="12" fill="#b388ff">[일상]</text><text x="220" y="314" font-family="monospace" font-size="12" fill="#e0e0e6">ADD(Agent-Driven Development…</text><text x="702" y="314" font-family="monospace" font-size="11" fill="#56566a" text-anchor="end">06.19</text><text x="22" y="346" font-family="monospace" font-size="12" fill="#3dd68c">▸</text><text x="38" y="346" font-family="monospace" font-size="12" fill="#7a7a90">[회고]</text><text x="220" y="346" font-family="monospace" font-size="12" fill="#e0e0e6">백준이 사라졌다</text><text x="702" y="346" font-family="monospace" font-size="11" fill="#56566a" text-anchor="end">06.19</text><text x="22" y="378" font-family="monospace" font-size="12" fill="#3dd68c">▸</text><text x="38" y="378" font-family="monospace" font-size="12" fill="#3dd68c">[백엔드]</text><text x="220" y="378" font-family="monospace" font-size="12" fill="#e0e0e6">JWT 토큰 어디에 둘까 — 쿠키만 박았던 이유가 …</text><text x="702" y="378" font-family="monospace" font-size="11" fill="#56566a" text-anchor="end">06.19</text>
</svg>